<?xml version="1.0" standalone="no"?>
<!DOCTYPE svg PUBLIC "-//W3C//DTD SVG 20010904//EN"
 "http://www.w3.org/TR/2001/REC-SVG-20010904/DTD/svg10.dtd">
<svg version="1.0" xmlns="http://www.w3.org/2000/svg"
 width="700.000000pt" height="700.000000pt" viewBox="0 0 700.000000 700.000000"
 preserveAspectRatio="xMidYMid meet">
<metadata>
Created by potrace 1.11, written by Peter Selinger 2001-2013
</metadata>
<g transform="translate(0.000000,700.000000) scale(0.100000,-0.100000)"
fill="#000000" stroke="none">
<path d="M2488 6995 c-1 -1 -36 -6 -76 -9 -40 -4 -78 -9 -85 -11 -7 -2 -30 -6
-52 -9 -96 -12 -356 -86 -383 -109 -8 -6 -16 -11 -16 -9 -2 8 -101 -35 -211
-91 -33 -16 -70 -35 -82 -41 -13 -6 -23 -14 -23 -18 0 -5 -5 -8 -10 -8 -48 0
-470 -346 -454 -372 3 -5 2 -7 -3 -6 -9 3 -53 -33 -53 -43 0 -3 -15 -22 -32
-41 -78 -82 -288 -414 -288 -454 0 -8 -4 -14 -10 -14 -5 0 -10 -7 -10 -15 0
-8 -4 -23 -10 -33 -24 -41 -82 -206 -106 -302 -11 -42 -46 -209 -50 -235 -24
-176 -24 -478 1 -615 2 -14 9 -50 14 -80 16 -92 30 -154 41 -180 5 -14 11 -36
14 -50 4 -23 16 -61 33 -100 3 -8 7 -17 7 -20 8 -47 141 -316 155 -313 6 2 8
-3 5 -10 -7 -19 105 -187 216 -322 32 -39 195 -202 240 -240 43 -37 49 -47 30
-51 -50 -9 -183 -50 -225 -68 -112 -49 -215 -99 -255 -125 -14 -9 -37 -23 -52
-31 -16 -7 -28 -17 -28 -22 0 -4 -5 -8 -11 -8 -6 0 -38 -21 -72 -47 -96 -75
-107 -85 -100 -96 3 -6 1 -7 -4 -4 -13 8 -144 -124 -207 -208 -25 -33 -54 -71
-64 -85 -10 -14 -27 -41 -38 -60 -10 -19 -21 -37 -24 -40 -14 -13 -71 -135
-103 -220 -51 -134 -74 -224 -97 -380 -10 -71 -5 -380 6 -389 5 -3 10 -31 12
-61 1 -30 6 -56 11 -58 5 -2 7 -12 4 -22 -3 -11 -1 -20 5 -20 5 0 9 -6 9 -12
-2 -23 15 -98 22 -98 4 0 7 -10 8 -22 2 -23 54 -150 85 -206 68 -122 80 -140
152 -237 54 -73 184 -210 264 -278 47 -40 250 -175 275 -183 12 -4 24 -10 27
-13 5 -7 148 -72 165 -75 6 -1 19 -7 30 -13 11 -6 40 -17 65 -24 25 -7 50 -14
55 -15 74 -21 177 -45 209 -49 23 -3 70 -9 106 -14 147 -19 427 -3 585 35 33
8 69 17 79 19 11 3 49 14 85 26 62 21 85 30 199 80 77 34 222 123 300 183 40
31 76 56 81 56 4 0 48 -18 96 -41 48 -23 93 -42 99 -43 6 -1 16 -4 21 -7 19
-12 200 -68 280 -88 129 -32 289 -52 453 -57 113 -4 152 -2 147 7 -6 8 -2 8
12 1 12 -7 33 -8 56 -3 20 5 38 7 40 4 3 -2 31 0 63 6 33 6 75 13 94 15 64 9
246 54 273 68 10 5 30 12 45 14 14 3 45 14 68 24 24 11 46 20 49 20 16 0 265
124 265 132 0 4 5 8 12 8 12 0 185 114 230 152 15 13 42 34 60 48 43 33 224
214 266 265 64 81 151 199 164 224 7 14 16 28 19 31 3 3 27 43 52 90 l45 85
54 2 c149 6 334 35 324 51 -2 4 9 7 26 8 16 1 39 6 51 11 12 6 42 19 67 29 25
10 52 23 60 29 8 6 32 18 53 28 20 9 37 21 37 27 0 5 4 9 9 8 20 -6 143 90
135 104 -4 7 -2 8 5 4 15 -10 144 120 135 136 -4 6 -3 8 3 5 23 -14 153 192
199 315 61 165 79 267 78 448 0 154 -24 296 -66 397 -6 15 -12 30 -12 33 -5
27 -31 68 -39 63 -6 -3 -7 -1 -3 6 8 12 -70 161 -85 161 -5 0 -9 6 -9 13 0 30
-197 236 -274 285 -23 15 -43 30 -46 33 -12 15 -51 29 -62 23 -6 -4 -8 -3 -5
3 9 14 -70 56 -85 47 -6 -4 -8 -2 -5 4 14 22 -228 94 -370 110 -123 14 -364
-2 -413 -28 -47 -25 -63 -16 -160 82 -162 163 -326 285 -517 385 -165 85 -153
75 -137 122 7 21 16 52 18 67 3 15 10 50 15 78 16 79 20 106 28 176 10 84 10
364 1 460 -8 77 -11 97 -28 185 -6 28 -12 60 -15 73 -2 12 -6 26 -9 30 -3 5
-8 24 -11 42 -11 64 -78 246 -129 355 -53 111 -130 245 -148 256 -5 3 -9 9 -9
13 2 17 -13 37 -25 32 -8 -3 -11 0 -8 8 11 28 -197 268 -332 383 -27 24 -56
49 -64 56 -39 35 -140 107 -148 107 -6 0 -12 3 -14 8 -6 14 -153 99 -268 155
-138 66 -345 137 -475 162 -141 27 -246 37 -407 40 -102 2 -188 2 -190 0z"/>
</g>
</svg>
