<svg width="48" height="48" viewBox="0 0 24 24" fill="none" xmlns="http://www.w3.org/2000/svg">
<path fill-rule="evenodd" clip-rule="evenodd" d="M4 12C4 7.57778 7.57778 4 12 4C16.4222 4 20 7.57778 20 12C20 16.4222 16.4222 20 12 20C7.57778 20 4 16.4222 4 12ZM15.8154 15.8154C16.0615 15.5692 16.0615 15.2 15.8154 14.9538L12.8615 12L15.8154 9.04615C16.0615 8.8 16.0615 8.43077 15.8154 8.18462C15.5692 7.93846 15.2 7.93846 14.9538 8.18462L12 11.1385L9.04615 8.18462C8.8 7.93846 8.43077 7.93846 8.18462 8.18462C7.93846 8.43077 7.93846 8.8 8.18462 9.04615L11.1385 12L8.18462 14.9538C7.93846 15.2 7.93846 15.5692 8.18462 15.8154C8.30769 15.9385 8.46154 16 8.61538 16C8.76923 16 8.92308 15.9385 9.04615 15.8154L12 12.8615L14.9538 15.8154C15.0769 15.9385 15.2308 16 15.3846 16C15.5385 16 15.6923 15.9385 15.8154 15.8154Z" fill="currentColor"/>
</svg>
