<svg width="48" height="48" viewBox="0 0 48 48" fill="none" xmlns="http://www.w3.org/2000/svg">
<path fill-rule="evenodd" clip-rule="evenodd" d="M24 40C32.8366 40 40 32.8366 40 24C40 15.1634 32.8366 8 24 8C15.1634 8 8 15.1634 8 24C8 32.8366 15.1634 40 24 40ZM24 15.1111C24.9818 15.1111 25.7778 15.9086 25.7778 16.8899C25.7778 17.8711 24.9818 18.6667 24 18.6667C23.0182 18.6667 22.2222 17.8711 22.2222 16.8899C22.2222 15.9086 23.0182 15.1111 24 15.1111ZM22.2222 22.2219C22.2222 21.2442 23.0221 20.4444 24 20.4444C24.9779 20.4444 25.7778 21.2442 25.7778 22.2219V31.1114C25.7778 32.0891 24.9779 32.8889 24 32.8889C23.0221 32.8889 22.2222 32.0891 22.2222 31.1114V22.2219Z" fill="currentColor"/>
</svg>
