<svg viewBox="0 310 1000 350" xmlns="http://www.w3.org/2000/svg"><g enable-background="new" fill="#000d27"><path d="m414 399.1h19.8v59.5c7-9.3 18.2-15.4 31.7-15.4 25.4 0 41.1 16.7 41.1 44.3v58.2h-20.4v-56.7c0-17.1-8.5-28.1-25.6-28.1-15 0-26.7 11.3-26.7 29.4v55.4h-20v-146.6z"/><path d="m526.7 503.3v-58h20.4v56.7c0 16.9 8.5 27.9 25.4 27.9 15 0 26.5-11.3 26.5-29.2v-55.4h20v100.4h-19.6v-13.7c-6.9 9.7-18 15.8-31.3 15.8-26.6 0-41.4-16.8-41.4-44.5z"/><path d="m661.6 531.2v14.5h-19.6v-146.9h19.8v61c7.6-10.2 20.8-16.6 34.3-16.6 26.5 0 50 20.6 50 52.3 0 31.4-23.9 52.3-49.9 52.3-13.7 0-27-6.2-34.6-16.6zm64.5-35.9c0-19-14.3-33.9-32.6-33.9-18.7 0-33 15.3-33 33.9 0 18.8 14.3 34 33 34 18.3 0 32.6-15 32.6-34z"/><path d="m760.9 506.1c0-14.1 7.4-25.5 19.6-32.6-9.1-6.5-14.3-16-14.3-28.1 0-22.1 16.7-37.4 43.2-37.4 26.1 0 43.4 15.3 43.4 37.4 0 12.1-5.7 21.6-15 28.1 12 7.1 19.6 18.4 19.6 32.6 0 24.7-18 41.5-48.4 41.5-31 0-48.1-16.8-48.1-41.5zm77.3 0c0-12.6-10.2-23.3-28.9-23.3s-29.1 10.8-29.1 23.3c0 12.8 10.2 23.4 28.9 23.4 18.5 0 29.1-10.6 29.1-23.4zm-4.1-60.6c0-11-8.2-20.1-24.5-20.1s-24.8 9.1-24.8 20.1c0 11.3 7.4 20.1 24.5 20.1s24.8-8.8 24.8-20.1z"/><path d="m872.3 506.1c0-14.1 7.4-25.5 19.6-32.6-9.1-6.5-14.3-16-14.3-28.1 0-22.1 16.7-37.4 43.2-37.4 26.1 0 43.4 15.3 43.4 37.4 0 12.1-5.7 21.6-15 28.1 12 7.1 19.6 18.4 19.6 32.6 0 24.7-18 41.5-48.4 41.5-31 0-48.1-16.8-48.1-41.5zm77.3 0c0-12.6-10.2-23.3-28.9-23.3s-29.1 10.8-29.1 23.3c0 12.8 10.2 23.4 28.9 23.4 18.5 0 29.1-10.6 29.1-23.4zm-4.1-60.6c0-11-8.2-20.1-24.5-20.1s-24.8 9.1-24.8 20.1c0 11.3 7.4 20.1 24.5 20.1 17-.1 24.8-8.8 24.8-20.1z"/></g><g enable-background="new" fill="#000d27"><path d="m413.9 576.6h6.5v27h-6.5z"/><path d="m428.2 576.6h6.7l10.1 16.2v-16.2h6.1v27h-6.2l-10.6-17v17h-6.2v-27z"/><path d="m465.7 582.6h-7.3v-6h20.8v6h-7.2v21.1h-6.3z"/><path d="m486.4 576.6h18.6v6h-12.2v4.4h12.2v6h-12.2v4.6h12.2v6h-18.6z"/><path d="m511.9 590.1c0-7.8 5.8-13.9 13.9-13.9 5.2 0 9 2.1 11.5 5.4l-5.4 3.8c-1.3-2-3.4-3.1-6.1-3.1-4.2 0-7.5 3.3-7.5 7.8 0 4.6 3.1 7.7 7.6 7.7 3.1 0 5.3-1.6 6.2-4.2h-7.5v-6h14.5v3.1c0 7.1-5.3 13.3-13 13.3-8.9 0-14.2-6.4-14.2-13.9z"/><path d="m546.2 576.6h11.6c6.5 0 10.1 4.2 10.1 9.3 0 3.4-1.7 6.4-4.4 8l5 9.8h-7.1l-3.8-8.1h-5.1v8.1h-6.4zm6.4 5.9v7.2h4.7c2.7 0 4-1.6 4-3.6 0-2.2-1.3-3.6-4-3.6z"/><path d="m583.1 576.6h6.2l10 27h-6.5l-1.4-4h-10.3l-1.4 4h-6.5zm-.1 17.4h6.3l-3.2-9.1z"/><path d="m607.5 582.6h-7.3v-6h20.8v6h-7.2v21.1h-6.3z"/><path d="m628.3 576.6h6.5v27h-6.5z"/><path d="m642 590.1c0-7.7 6.1-13.9 13.8-13.9s13.8 6.2 13.8 13.9-6 13.9-13.8 13.9-13.8-6.2-13.8-13.9zm21 0c0-4.1-3.2-7.5-7.3-7.5-4.2 0-7.3 3.4-7.3 7.5s3.1 7.5 7.3 7.5c4.2.1 7.3-3.3 7.3-7.5z"/><path d="m676.6 576.6h6.7l10.1 16.2v-16.2h6.1v27h-6.2l-10.6-17v17h-6.2v-27z"/><path d="m734.5 593.3h-8.8v10.4h-6.5v-27h6.5v10.2h8.8v-10.2h6.5v27h-6.5z"/><path d="m748.6 593v-16.4h6.5v16.4c0 3 1.7 4.7 4.3 4.7s4.4-1.7 4.4-4.7v-16.4h6.5v16.4c0 7-4.2 11-10.9 11s-10.8-4-10.8-11z"/><path d="m778 576.6h10.7c6.5 0 9.8 2.7 9.8 7.7 0 2.4-1 4.2-2.7 5.3 2.1 1.2 3.2 3.1 3.2 5.8 0 5.6-3.9 8.2-10.3 8.2h-10.7zm6.3 5.7v4.8h4.7c2.3 0 3.1-1 3.1-2.5s-.9-2.3-3.2-2.3zm0 10.4v5.3h4.5c2.5 0 3.6-1 3.6-2.7s-.9-2.6-3.7-2.6z"/></g><path d="m153.7 342c52.8 0 95.6 42.7 95.7 95.5 0 52.8-42.7 95.6-95.5 95.7-52.8 0-95.6-42.7-95.7-95.5 0 0 0 0 0-.1-.1-52.8 42.7-95.6 95.5-95.6z" fill="#06bee1" opacity=".8"/><circle cx="206.6" cy="554.1" fill="#1768ac" opacity=".8" r="95.5"/><path d="m106.6 507.2c41.6 0 75.4 33.7 75.4 75.4 0 41.6-33.7 75.4-75.4 75.4-41.6 0-75.4-33.7-75.4-75.4 0-41.6 33.7-75.4 75.4-75.4z" fill="#2541b2" opacity=".8"/><circle cx="302.3" cy="541.8" fill="#03256c" opacity=".8" r="52.4"/></svg>